<svg width="162" height="158" viewBox="0 0 162 158" fill="none" xmlns="http://www.w3.org/2000/svg">
<path fill-rule="evenodd" clip-rule="evenodd" d="M80.5173 -0.000364988C36.0547 -0.000364988 0 36.0463 0 80.5156C0 116.09 23.0707 146.272 55.0627 156.919C59.0867 157.664 60.564 155.172 60.564 153.045C60.564 151.125 60.4894 144.782 60.4547 138.054C38.0547 142.925 33.328 128.554 33.328 128.554C29.6653 119.248 24.388 116.773 24.388 116.773C17.0827 111.776 24.9387 111.878 24.9387 111.878C33.024 112.445 37.2813 120.176 37.2813 120.176C44.4627 132.485 56.1173 128.926 60.712 126.869C61.4347 121.666 63.5213 118.112 65.824 116.102C47.94 114.066 29.14 107.162 29.14 76.3103C29.14 67.5196 32.2853 60.337 37.436 54.6983C36.6 52.669 33.844 44.481 38.216 33.3903C38.216 33.3903 44.9773 31.2263 60.364 41.6436C66.7867 39.8596 73.6747 38.965 80.5173 38.9343C87.36 38.965 94.2533 39.8596 100.688 41.6436C116.056 31.2263 122.808 33.3903 122.808 33.3903C127.191 44.481 124.433 52.669 123.597 54.6983C128.76 60.337 131.884 67.5196 131.884 76.3103C131.884 107.236 113.048 114.045 95.1187 116.038C98.0067 118.537 100.58 123.437 100.58 130.949C100.58 141.721 100.487 150.392 100.487 153.045C100.487 155.188 101.936 157.698 106.017 156.908C137.992 146.249 161.033 116.078 161.033 80.5156C161.033 36.0463 124.984 -0.000364988 80.5173 -0.000364988" fill="white"/>
</svg>
