<svg width="162" height="158" viewBox="0 0 162 158" fill="none" xmlns="http://www.w3.org/2000/svg">
<path fill-rule="evenodd" clip-rule="evenodd" d="M80.5173 0.000237226C36.0547 0.000237226 0 36.0482 0 80.5176C0 116.092 23.0707 146.274 55.0627 156.92C59.0867 157.666 60.564 155.174 60.564 153.047C60.564 151.127 60.4894 144.784 60.4547 138.056C38.0547 142.927 33.328 128.556 33.328 128.556C29.6653 119.25 24.388 116.775 24.388 116.775C17.0827 111.778 24.9387 111.88 24.9387 111.88C33.024 112.447 37.2813 120.179 37.2813 120.179C44.4627 132.487 56.1173 128.928 60.712 126.871C61.4347 121.667 63.5213 118.114 65.824 116.104C47.94 114.068 29.14 107.164 29.14 76.3122C29.14 67.5215 32.2853 60.3389 37.436 54.7002C36.6 52.6709 33.844 44.4829 38.216 33.3922C38.216 33.3922 44.9773 31.2282 60.364 41.6455C66.7867 39.8615 73.6747 38.9669 80.5173 38.9362C87.36 38.9669 94.2533 39.8615 100.688 41.6455C116.056 31.2282 122.808 33.3922 122.808 33.3922C127.191 44.4829 124.433 52.6709 123.597 54.7002C128.76 60.3389 131.884 67.5215 131.884 76.3122C131.884 107.238 113.048 114.047 95.1187 116.04C98.0067 118.539 100.58 123.439 100.58 130.951C100.58 141.724 100.487 150.395 100.487 153.047C100.487 155.19 101.936 157.7 106.017 156.91C137.992 146.251 161.033 116.08 161.033 80.5176C161.033 36.0482 124.984 0.000237226 80.5173 0.000237226" fill="#1B1817"/>
</svg>
